<mxfile host="app.diagrams.net" modified="2023-07-07T20:24:32.741Z" agent="Mozilla/5.0 (X11; Linux x86_64) AppleWebKit/537.36 (KHTML, like Gecko) Chrome/114.0.0.0 Safari/537.36" version="21.6.1" etag="KNo4jafaYCz8CjA_6ucH" type="github">
  <diagram name="PÃ¡gina-1" id="uzX_VmJRHpGuO5OPCW_Q">
    <mxGraphModel>
      <root>
        <mxCell id="0" />
        <mxCell id="1" parent="0" />
      </root>
    </mxGraphModel>
  </diagram>
</mxfile>
